<svg width="133" height="76" viewBox="0 0 133 76" fill="none" xmlns="http://www.w3.org/2000/svg">
<g clip-path="url(#clip0_26_1691)">
<path fill-rule="evenodd" clip-rule="evenodd" d="M118.523 23.4485C118.306 21.1772 118.126 18.978 117.91 16.7427L118.451 16.6706C118.523 16.8148 118.595 16.959 118.667 17.1033C118.811 17.3556 118.919 17.608 119.064 17.8964C120.578 20.7446 124.255 22.1145 127.139 20.8527C130.096 19.5548 131.61 16.1298 130.6 12.9933C129.591 9.96485 127.356 8.19828 124.471 7.22486C119.785 5.6025 114.881 5.38618 110.014 5.16987C108.789 5.13382 107.779 5.42223 107.959 6.86433C108.068 7.90986 108.176 8.99143 108.32 10.037C108.861 14.9401 109.402 19.8432 110.014 24.7464C110.087 25.2872 110.88 26.0443 111.493 26.1885C113.511 26.7293 115.603 27.0537 117.658 27.4503C119.28 27.4503 118.703 24.8906 118.559 23.3764L118.523 23.4485ZM121.912 15.4448C124.183 13.5701 120.65 12.1641 118.847 12.2722C118.415 12.2722 117.694 12.8491 117.658 13.2096C117.513 14.6877 120.83 16.3101 121.912 15.4448Z" fill="#FB7828"/>
<path d="M96.6753 25.9725C97.3243 25.6841 97.9732 25.3957 98.6582 25.0712C98.8745 26.8738 100.1 26.7657 101.434 26.5133C102.336 26.3691 103.237 26.333 104.174 26.297C106.157 26.1888 106.446 25.8644 106.229 23.8815C105.688 18.6178 105.003 13.3541 104.751 8.05442C104.679 6.90074 104.643 6.21575 104.318 5.85522C103.489 4.95391 101.254 5.42259 100.172 5.42259C98.6221 5.42259 97.829 5.45865 97.5045 5.85522C97.18 6.2518 97.2521 7.0089 97.4324 8.48705C97.7208 11.0468 97.9371 13.6426 97.9371 16.2383C97.9371 18.6178 95.6298 20.817 93.4666 20.817C91.2674 20.817 91.0511 18.1491 90.9069 16.4547C90.8348 15.7336 90.7627 15.0126 90.6906 14.2915C90.5103 12.4528 90.3301 10.6142 90.1498 8.77547C90.0056 7.29732 89.3567 6.57627 87.8064 6.90074C86.4724 7.18916 85.1025 7.40548 83.7685 7.65785C82.8311 7.83811 82.4346 8.34285 82.5427 9.35232C82.8311 11.876 82.9754 14.3997 83.1917 16.9233C83.444 19.4831 83.6604 22.0067 84.0569 24.5304C84.5256 27.5949 86.5085 28.8928 89.573 28.5683C90.4743 28.4601 91.3756 28.2078 92.2048 27.8833C93.719 27.2704 95.1611 26.5854 96.6753 25.9004V25.9725Z" fill="#FB7828"/>
<path d="M42.7402 36.0314C43.2089 34.9137 43.7136 33.7961 44.2184 32.6424C45.372 29.9745 46.5257 27.3427 47.6073 24.6388C48.3284 22.8361 49.446 21.7185 51.2486 21.1056C53.7362 20.2043 56.1157 19.1948 58.5673 18.2214C60.8746 17.3201 61.1631 17.5004 61.4154 20.024C62.6773 33.2553 63.7588 46.4866 65.0207 59.7179C65.1649 61.2321 64.7322 62.0613 63.3262 62.6021C60.2978 63.7557 57.3054 65.0176 54.277 66.2073C52.5104 66.8923 52.0418 66.6039 51.8615 64.6931C51.0323 55.716 49.9507 46.6668 49.4099 37.6898C49.3378 36.2116 48.6528 35.9953 47.3549 36.5C46.2373 36.9327 45.1197 37.3292 43.966 37.6898C41.6586 38.4469 42.0192 37.6898 42.7402 36.0314Z" fill="#FB7828"/>
<path d="M5.75174 71.0379C4.74227 71.4706 4.20148 71.2182 4.12938 70.1366C3.80491 66.7837 3.51648 63.4308 3.19201 60.0419C3.08385 58.8882 3.69675 58.2753 4.67017 57.8067C12.7459 53.9851 22.408 56.0401 30.9885 56.7611C36.5406 57.2298 42.0566 57.0496 47.3563 55.1027C48.7624 54.598 49.159 55.1027 49.2671 56.4727C49.4834 59.5732 49.7718 62.6377 50.1324 65.7022C50.3126 67.1443 49.844 67.9374 48.474 68.4061C43.3185 70.2808 37.9827 70.4971 32.6109 70.0285C23.8501 69.2714 14.0799 67.2885 5.78779 71.0019L5.75174 71.0379Z" fill="#FB7828"/>
<path d="M19.3421 39.997C13.9342 39.4922 8.88689 39.5643 3.65928 41.7635C2.32534 42.3043 1.64035 43.1335 1.78456 44.6477C1.96482 46.5225 2.10903 48.3972 2.28929 50.2719C2.39745 51.5338 2.5056 52.7956 2.61376 54.0574C2.72192 55.3193 3.2627 55.7519 4.56059 55.1751C12.9969 51.4977 22.4066 53.6248 31.2034 54.2738C36.5752 54.6703 41.911 54.6343 47.0305 52.5793C48.0039 52.1827 48.761 51.7501 48.6528 50.4882C48.4365 48.1809 48.2202 45.8735 48.0399 43.6022C47.9678 42.5567 47.8597 41.4751 47.7515 40.4296C47.6433 39.312 47.1386 38.9154 46.021 39.312C37.4405 42.5206 28.211 40.8622 19.3421 39.997Z" fill="#FB7828"/>
<path d="M44.2903 23.8094C39.0267 25.6842 33.6188 25.8284 28.1388 25.3237C23.5241 24.891 18.9454 24.4944 14.3307 24.206C10.0044 23.9537 5.82229 24.6026 1.82046 26.3331C0.66678 26.8379 0.162052 27.4868 0.306262 28.8207C0.558629 30.8757 0.738885 32.9307 0.919148 35.0218C1.02731 36.1394 1.09942 37.2931 1.20757 38.4107C1.27968 39.2039 1.35178 40.2133 2.36125 39.7807C8.41807 37.1128 14.7633 37.1849 21.1807 37.7618C25.1104 38.1223 29.0401 38.3026 32.9698 38.4828C34.2317 38.5549 35.4575 38.591 36.7193 38.6631C37.8369 38.7352 38.8825 38.4828 39.4232 37.2931C40.3967 35.202 41.3701 33.0749 42.3435 30.9839C43.3169 28.8928 44.2903 26.7658 45.2637 24.6747C45.7685 23.485 45.5161 23.3768 44.3985 23.7734L44.2903 23.8094Z" fill="#FB7828"/>
<path d="M78.2877 15.9863C79.5495 16.3468 79.0448 15.4455 78.9366 14.3279C78.8285 13.1742 78.7203 12.0926 78.6482 11.0471C78.54 9.49685 77.4945 9.06422 76.1245 9.4608C74.358 9.96554 72.5553 10.5063 70.8609 11.2995C67.7964 12.7416 65.3088 14.9047 63.8667 18.0773C62.2804 21.6826 64.3714 26.2613 68.193 26.1171C68.9501 26.1171 69.8153 26.2613 70.5003 26.6218C71.7982 27.2347 72.5553 29.3257 70.5003 29.5781C69.2024 29.7223 67.7964 29.6502 66.4985 29.3618C64.5877 28.9292 64.119 29.2176 64.2993 31.2365C64.3714 32.1378 64.5156 33.0391 64.5517 33.9765C64.6598 35.4907 65.3809 36.2478 66.8951 35.707C69.599 34.8057 72.339 34.0126 74.8987 32.8228C77.3503 31.6691 79.3693 29.8665 80.4508 27.2347C81.965 23.5213 79.6577 19.9881 75.764 19.5555C74.7906 19.4473 72.5914 18.7263 72.4111 17.6808C72.1588 16.3108 73.4927 15.806 74.6103 15.5897C75.764 15.4095 77.134 15.6979 78.2516 16.0224L78.2877 15.9863Z" fill="#FB7828"/>
<path d="M95.7372 52.0027C92.2401 52.7237 88.743 53.4808 85.2459 54.3821C83.8038 54.7427 83.3351 54.3821 83.227 52.904C83.0107 49.9477 82.7944 46.9914 82.542 44.0351C82.2896 40.8985 82.0373 37.7619 81.8209 34.6254C81.7849 34.0846 82.3617 33.1472 82.8304 33.039C86.3275 32.1738 89.8246 31.4527 93.3577 30.6956C93.8625 30.5875 94.3312 30.4793 94.8359 30.3712C96.6947 29.8401 96.7699 33.0609 96.7106 34.1567C96.7106 35.1968 96.5182 36.2042 95.3406 36.5722C93.9912 36.9983 92.556 37.0593 91.1946 37.4374C89.6083 37.9061 89.9688 39.5646 91.5912 39.4564C92.7811 39.3743 93.9382 39.0589 95.0883 38.7714C96.2059 38.519 96.8548 38.8796 96.963 40.0693C97.0351 40.7543 97.0712 41.4393 97.1072 42.1243C97.1793 43.2419 96.6025 43.7827 95.5209 43.8909C94.4033 43.999 93.2856 44.2153 92.132 44.3956C91.1225 44.5758 90.4375 45.0085 90.6178 46.2343C90.8341 47.4601 92.4204 47.1716 92.4204 47.1716C92.4204 47.1716 94.3743 46.8544 95.2685 46.6308C97.1793 46.2703 98.0402 46.9873 98.1888 48.9743C98.3374 50.9612 98.9415 51.6291 95.7372 52.0027Z" fill="#FB7828"/>
<path d="M100.064 44.6112C99.3669 44.1516 99.0458 44.7873 99.1268 45.873C99.2078 46.9587 99.3024 50.8955 100.965 51.2809C102.629 51.6663 108.789 52.3625 112.43 50.1633C114.125 49.1538 115.026 47.6396 114.918 45.6207C114.738 42.6283 112.899 40.7536 110.555 39.2394C109.639 38.6893 108.595 38.2798 107.779 37.5809C106.445 36.3912 107.13 34.4083 109.041 34.877C110.036 35.1111 110.758 35.9363 111.601 36.4633C112.842 37.1525 113.221 36.1972 113.043 35.1294C112.935 33.7954 112.863 32.4615 112.538 31.1997C112.394 30.5868 112.039 30.0025 111.024 29.6133C110.009 29.2242 105.22 28.7841 102.48 29.9739C97.865 31.9568 97.1439 35.526 99.3792 39.672C99.8839 40.6094 100.893 41.3304 101.867 42.0154C102.606 42.5436 103.334 43.0646 104.138 43.4936C104.715 43.818 105.292 44.1425 105.797 44.5751C106.88 45.4619 106.17 47.138 104.751 46.8104C103.669 46.522 102.588 45.9812 101.578 45.4764C101.506 45.4404 101.434 45.4043 101.362 45.3683C101.043 45.2087 100.761 45.0708 100.064 44.6112Z" fill="#FB7828"/>
<path d="M67.6882 59.3573C67.544 58.0594 67.4358 56.7615 67.3276 55.4636C66.9671 51.5339 66.6066 47.6041 66.1019 43.6744C65.6332 39.925 65.6332 39.8529 69.3105 38.2665C72.1226 37.0408 75.0068 35.9231 77.855 34.8055C79.225 34.2647 79.8739 34.9137 79.9821 36.2837C80.1744 39.0477 78.9486 40.9705 76.3047 42.0521C75.4395 42.4126 74.43 42.9173 74.8266 44.0349C75.2231 45.1886 78.4679 43.6384 79.0808 43.4221C80.0902 43.0976 80.631 43.4221 80.6671 44.5036C80.6671 44.6118 80.6671 44.7199 80.6671 44.8642C80.9915 47.3518 79.946 49.0102 77.6026 49.8033C75.1871 50.6326 75.151 50.7047 75.4395 53.2644C75.5837 54.4181 76.1605 56.2928 75.5837 57.2662C75.2592 57.807 74.5381 58.0954 73.0239 58.7083C71.726 59.2131 70.4282 59.7538 69.1303 60.2946C68.6032 60.5456 67.7769 60.1555 67.6882 59.3573Z" fill="#FB7828"/>
<path d="M127.823 44.9007C127.823 44.9007 127.642 43.2062 127.606 42.4491C127.498 39.8894 128.399 38.8439 130.346 39.2405C130.943 39.362 131.786 39.651 132.185 38.952C133.339 37.0773 132.005 33.6523 129.878 33.1836C125.936 32.3417 121.967 31.6663 118.016 30.8763C114.808 30.2994 114.699 30.2994 115.096 34.121C115.276 35.8876 115.997 36.7889 117.692 36.8249C119.639 36.8249 120.179 37.9065 120.252 39.6731C120.324 41.5478 120.468 43.4226 120.612 45.3333C120.72 46.9196 120.828 48.542 120.937 50.1283C121.009 51.3902 121.477 52.003 122.739 52.1473C124.03 52.3156 125.328 52.5754 126.597 52.8683C128.291 53.1567 128.652 52.8683 128.508 51.1017C128.443 50.3435 127.823 44.9007 127.823 44.9007Z" fill="#FB7828"/>
<path d="M17.8281 73.9944C68.4819 81.8538 62.0646 55.211 119.821 57.7707" stroke="#FB7828" stroke-width="1.08158" stroke-linecap="round"/>
<path d="M11.6631 18.4376C67.7247 25.3958 52.2943 -4.31152 119.821 1.31267" stroke="#FB7828" stroke-width="1.08158" stroke-linecap="round"/>
<path d="M20.208 14.3278C32.538 15.4815 39.388 14.1836 46.4903 11.9844" stroke="#FB7828" stroke-width="1.08158" stroke-linecap="round"/>
<path d="M119.82 62.0619C99.5224 61.1245 88.4182 63.8645 77.999 68.1187" stroke="#FB7828" stroke-width="1.08158" stroke-linecap="round"/>
</g>
<defs>
<clipPath id="clip0_26_1691">
<rect width="133" height="76" fill="white"/>
</clipPath>
</defs>
</svg>
