<svg width="9" height="6" viewBox="0 0 9 6" fill="none" xmlns="http://www.w3.org/2000/svg">
<path d="M3.96386 0.214622L0.197199 3.98796C0.134713 4.04993 0.0851172 4.12366 0.0512714 4.2049C0.0174256 4.28614 -3.84695e-09 4.37328 0 4.46129C3.84695e-09 4.5493 0.0174257 4.63643 0.0512714 4.71767C0.0851172 4.79891 0.134713 4.87265 0.197199 4.93462C0.322107 5.05879 0.491075 5.12848 0.667199 5.12848C0.843323 5.12848 1.01229 5.05879 1.1372 4.93462L4.47053 1.63462L7.77053 4.93462C7.89544 5.05879 8.06441 5.12848 8.24053 5.12848C8.41665 5.12848 8.58562 5.05879 8.71053 4.93462C8.77352 4.87288 8.82364 4.79925 8.85797 4.718C8.8923 4.63675 8.91016 4.54949 8.91053 4.46129C8.91016 4.37308 8.8923 4.28583 8.85797 4.20458C8.82364 4.12333 8.77352 4.0497 8.71053 3.98796L4.94386 0.214622C4.88144 0.146952 4.80567 0.0929462 4.72134 0.056008C4.637 0.0190698 4.54593 -4.02441e-09 4.45386 0C4.3618 4.02441e-09 4.27073 0.0190698 4.18639 0.056008C4.10206 0.0929462 4.02629 0.146952 3.96386 0.214622Z" fill="#37404D"/>
</svg>
