<svg width="140" height="47" viewBox="0 0 140 47" fill="none" xmlns="http://www.w3.org/2000/svg">
<g clip-path="url(#clip0_29_6327)">
<path d="M10.9123 19.5992V27.5911H0V19.5992H2.24384V25.8025H4.35342V19.5992H6.59726V25.8025H8.68767V19.5992H10.9123ZM17.0493 24.5276H16.0137V27.5911H13.7507V19.5992H16.0137V22.7008H17.1068L19.0247 19.5992H21.4219L18.9096 23.462L21.4603 27.5911H18.8712L17.0493 24.5276ZM31.1644 19.5992L27.8274 25.7834C27.4822 26.4494 27.0411 26.9442 26.5233 27.2867C26.0247 27.6292 25.4685 27.8004 24.8548 27.8004C24.4137 27.8004 23.9342 27.7053 23.4356 27.496L23.9726 25.8215C24.2795 25.9166 24.5479 25.9547 24.7781 25.9547C25.0082 25.9547 25.2 25.8976 25.3726 25.8025C25.5452 25.7073 25.7178 25.5551 25.8521 25.3267L22.726 19.5992H25.1233L27.0027 23.462L28.9397 19.5992H31.1644ZM40.4082 19.5992V27.5911H38.1644V21.3879H35.8438L35.8055 22.6818C35.7671 23.8235 35.6712 24.7559 35.5178 25.4599C35.3644 26.183 35.1151 26.7348 34.7507 27.1344C34.3863 27.515 33.8877 27.7243 33.2164 27.7243C32.9096 27.7243 32.5644 27.6863 32.1808 27.5911L32.3151 25.7454C32.411 25.7644 32.526 25.7834 32.6219 25.7834C32.9288 25.7834 33.1589 25.6693 33.3123 25.4219C33.4658 25.1935 33.5808 24.851 33.6575 24.4324C33.7342 24.0138 33.7726 23.462 33.7918 22.7769L33.9068 19.5992H40.4082ZM49.7479 25.8405V27.5911H43.2849V19.5992H49.5945V21.3498H45.5288V22.7008H49.1151V24.3944H45.5288V25.8595H49.7479V25.8405ZM45.2219 18.9713C44.9534 18.9713 44.7425 18.8952 44.5699 18.7239C44.3973 18.5527 44.3205 18.3433 44.3205 18.0769C44.3205 17.8106 44.3973 17.6012 44.5699 17.43C44.7425 17.2587 44.9726 17.1826 45.2219 17.1826C45.4904 17.1826 45.7014 17.2587 45.874 17.43C46.0466 17.6012 46.1425 17.8106 46.1425 18.0769C46.1425 18.3433 46.0466 18.5527 45.874 18.7239C45.7014 18.8761 45.4904 18.9713 45.2219 18.9713ZM47.6575 18.9713C47.389 18.9713 47.1781 18.8952 47.0055 18.7239C46.8329 18.5527 46.7562 18.3433 46.7562 18.0769C46.7562 17.8106 46.8329 17.6012 47.0055 17.43C47.1781 17.2587 47.4082 17.1826 47.6575 17.1826C47.9068 17.1826 48.137 17.2587 48.3096 17.43C48.4822 17.6012 48.5781 17.8106 48.5781 18.0769C48.5781 18.3433 48.4822 18.5527 48.3096 18.7239C48.137 18.8761 47.926 18.9713 47.6575 18.9713ZM58.0712 23.4239C58.5507 23.5761 58.9151 23.8045 59.1452 24.128C59.3945 24.4514 59.5288 24.851 59.5288 25.3077C59.5288 26.0118 59.2411 26.5826 58.6849 26.9822C58.1288 27.3818 57.3425 27.5911 56.326 27.5911H52.2027V19.5992H56.1151C57.074 19.5992 57.8219 19.7895 58.3589 20.151C58.8959 20.5126 59.1644 21.0263 59.1644 21.6733C59.1644 22.0539 59.0685 22.3964 58.8767 22.7008C58.6849 23.0053 58.4164 23.2336 58.0712 23.4239ZM54.4466 22.796H55.9041C56.5562 22.796 56.863 22.5296 56.863 22.0158C56.863 21.483 56.537 21.2357 55.9041 21.2357H54.4466V22.796ZM56.2301 25.9737C56.8822 25.9737 57.2274 25.6883 57.2274 25.1365C57.2274 24.6037 56.9014 24.3182 56.2301 24.3182H54.4274V25.9547H56.2301V25.9737Z" fill="#284CA6"/>
<path d="M68.0822 19.5992L70.3644 22.7579L72.6466 19.5992H73.6439L70.9014 23.4429L73.874 27.5911H72.8767L70.3836 24.166L67.8904 27.5911H66.9124L69.8658 23.462L67.1041 19.5992H68.0822ZM79.8767 27.6672C79.0713 27.6672 78.3617 27.496 77.7096 27.1344C77.0576 26.7729 76.5589 26.2972 76.1945 25.6692C75.8302 25.0603 75.6576 24.3563 75.6576 23.5952C75.6576 22.834 75.8302 22.13 76.1945 21.5211C76.5589 20.9122 77.0767 20.4174 77.7096 20.0749C78.3617 19.7134 79.0904 19.5421 79.8767 19.5421C80.663 19.5421 81.3918 19.7134 82.0247 20.0749C82.6767 20.4174 83.1754 20.9122 83.5398 21.5401C83.9041 22.149 84.0959 22.853 84.0959 23.6142C84.0959 24.3753 83.9041 25.0794 83.5398 25.7073C83.1754 26.3162 82.6576 26.8109 82.0247 27.1535C81.3918 27.496 80.6822 27.6672 79.8767 27.6672ZM79.8767 26.9061C80.5096 26.9061 81.085 26.7729 81.6028 26.4875C82.1206 26.202 82.5233 25.8024 82.811 25.3077C83.0987 24.7939 83.2521 24.2231 83.2521 23.6142C83.2521 23.0053 83.0987 22.4344 82.811 21.9207C82.5233 21.4069 82.1206 21.0073 81.6028 20.7409C81.085 20.4555 80.5096 20.3032 79.8767 20.3032C79.2439 20.3032 78.6685 20.4555 78.1315 20.7409C77.6137 21.0263 77.211 21.4259 76.9041 21.9207C76.6165 22.4154 76.463 22.9862 76.463 23.6142C76.463 24.2421 76.6165 24.813 76.9041 25.3077C77.211 25.8024 77.6137 26.202 78.1315 26.4875C78.6685 26.7729 79.2439 26.9061 79.8767 26.9061ZM93.3781 19.5992V27.5911H92.5343V20.3223H88.6411L88.5452 22.9862C88.5069 24.0899 88.411 24.9842 88.2767 25.6502C88.1425 26.3162 87.9315 26.83 87.6247 27.1535C87.337 27.4769 86.9534 27.6482 86.4548 27.6482C86.2439 27.6482 86.0329 27.6292 85.8028 27.5721L85.8795 26.8109C86.0137 26.849 86.1288 26.849 86.263 26.849C86.6082 26.849 86.8767 26.7158 87.0877 26.4494C87.2987 26.183 87.4713 25.7644 87.5672 25.2126C87.6822 24.6417 87.7398 23.8996 87.7781 22.9862L87.8932 19.5611H93.3781V19.5992ZM104.521 26.868V29.3988H103.734V27.5911H96.6959L96.6767 29.3798H95.8904L95.9096 26.849H96.3124C96.8493 26.8109 97.2137 26.4113 97.4247 25.6122C97.6356 24.813 97.7507 23.6713 97.8082 22.1871L97.9041 19.5992H103.332V26.868H104.521ZM98.5562 22.2822C98.5178 23.5 98.4219 24.5085 98.2685 25.2887C98.1151 26.0688 97.8658 26.6016 97.5206 26.868H102.488V20.3413H98.6329L98.5562 22.2822ZM107.416 19.5992H108.26V26.2211L113.419 19.5992H114.186V27.5911H113.342V20.9883L108.184 27.5911H107.416V19.5992ZM124.773 19.5992V27.5911H123.929V23.8996H118.904V27.5911H118.06V19.5992H118.904V23.1575H123.948V19.5992H124.773ZM133.767 20.3413H129.471L129.49 27.6101H128.647V19.6182H133.767V20.3413Z" fill="black"/>
<path fill-rule="evenodd" clip-rule="evenodd" d="M91.9589 0H140V47H91.9589V34.6125H93.3013V45.668H138.657V1.33198H93.3013V12.2733H91.9589V0Z" fill="#284CA6"/>
</g>
<defs>
<clipPath id="clip0_29_6327">
<rect width="140" height="47" fill="white"/>
</clipPath>
</defs>
</svg>
